<?xml version="1.0" encoding="utf-8" standalone="no"?>
<!DOCTYPE svg PUBLIC "-//W3C//DTD SVG 1.1//EN"
  "http://www.w3.org/Graphics/SVG/1.1/DTD/svg11.dtd">
<!-- Created with matplotlib (https://matplotlib.org/) -->
<svg height="432pt" version="1.1" viewBox="0 0 576 432" width="576pt" xmlns="http://www.w3.org/2000/svg" xmlns:xlink="http://www.w3.org/1999/xlink">
 <metadata>
  <rdf:RDF xmlns:cc="http://creativecommons.org/ns#" xmlns:dc="http://purl.org/dc/elements/1.1/" xmlns:rdf="http://www.w3.org/1999/02/22-rdf-syntax-ns#">
   <cc:Work>
    <dc:type rdf:resource="http://purl.org/dc/dcmitype/StillImage"/>
    <dc:date>2021-05-04T17:26:58.445783</dc:date>
    <dc:format>image/svg+xml</dc:format>
    <dc:creator>
     <cc:Agent>
      <dc:title>Matplotlib v3.3.2, https://matplotlib.org/</dc:title>
     </cc:Agent>
    </dc:creator>
   </cc:Work>
  </rdf:RDF>
 </metadata>
 <defs>
  <style type="text/css">*{stroke-linecap:butt;stroke-linejoin:round;}</style>
 </defs>
 <g id="figure_1">
  <g id="patch_1">
   <path d="M 0 432 
L 576 432 
L 576 0 
L 0 0 
z
" style="fill:#ffffff;"/>
  </g>
  <g id="axes_1">
   <g id="patch_2">
    <path d="M 72 388.8 
L 518.4 388.8 
L 518.4 43.2 
L 72 43.2 
z
" style="fill:#ffffff;"/>
   </g>
   <g id="line2d_1">
    <path clip-path="url(#p50ea49c79b)" d="M 72 201.163223 
L 518.4 201.163223 
" style="fill:none;stroke:#808080;stroke-dasharray:6,6;stroke-dashoffset:0;stroke-width:0.5;"/>
   </g>
   <g id="line2d_2">
    <path clip-path="url(#p50ea49c79b)" d="M 72 204.710607 
L 518.4 204.710607 
" style="fill:none;stroke:#808080;stroke-linecap:square;stroke-width:0.5;"/>
   </g>
   <g id="line2d_3">
    <path clip-path="url(#p50ea49c79b)" d="M 72 216 
L 518.4 216 
" style="fill:none;stroke:#000000;stroke-linecap:square;stroke-width:0.5;"/>
   </g>
   <g id="line2d_4">
    <path clip-path="url(#p50ea49c79b)" d="M 72 227.289393 
L 518.4 227.289393 
" style="fill:none;stroke:#808080;stroke-linecap:square;stroke-width:0.5;"/>
   </g>
   <g id="line2d_5">
    <path clip-path="url(#p50ea49c79b)" d="M 72 230.836777 
L 518.4 230.836777 
" style="fill:none;stroke:#808080;stroke-dasharray:6,6;stroke-dashoffset:0;stroke-width:0.5;"/>
   </g>
   <g id="line2d_6">
    <path clip-path="url(#p50ea49c79b)" d="M 72.8928 219.348557 
L 73.7856 217.135792 
L 74.6784 222.178247 
L 75.5712 206.130705 
L 76.464 210.502112 
L 77.3568 206.45874 
L 78.2496 217.806709 
L 79.1424 213.447583 
L 80.0352 208.365767 
L 80.928 211.985657 
L 81.8208 214.972367 
L 82.7136 228.101748 
L 83.6064 206.973716 
L 84.4992 225.194242 
L 85.392 223.31175 
L 86.2848 212.511903 
L 87.1776 223.738789 
L 88.0704 219.851432 
L 88.9632 203.987658 
L 89.856 223.718921 
L 90.7488 220.623136 
L 91.6416 220.255863 
L 92.5344 217.738048 
L 93.4272 220.629655 
L 94.32 213.730894 
L 95.2128 221.307307 
L 96.1056 215.728845 
L 96.9984 221.846822 
L 98.784 212.577764 
L 99.6768 228.756842 
L 100.5696 220.11702 
L 101.4624 215.236844 
L 102.3552 214.132636 
L 103.248 203.360829 
L 104.1408 213.211631 
L 105.0336 207.257922 
L 105.9264 210.818673 
L 106.8192 218.682455 
L 107.712 217.731917 
L 108.6048 216.15819 
L 109.4976 215.851873 
L 110.3904 210.134185 
L 111.2832 201.543286 
L 112.176 216.918697 
L 113.0688 220.419768 
L 113.9616 204.756348 
L 114.8544 207.31576 
L 115.7472 208.325942 
L 116.64 216.206836 
L 117.5328 218.750139 
L 118.4256 223.671576 
L 119.3184 218.26623 
L 120.2112 223.413458 
L 121.104 217.280554 
L 121.9968 216.942396 
L 122.8896 215.093795 
L 123.7824 218.252636 
L 124.6752 217.023425 
L 125.568 212.393865 
L 126.4608 217.472306 
L 127.3536 216.696683 
L 128.2464 204.813639 
L 129.1392 220.21142 
L 130.032 221.7524 
L 130.9248 211.565503 
L 131.8176 221.387891 
L 132.7104 212.951175 
L 133.6032 223.802787 
L 134.496 215.716231 
L 135.3888 208.794338 
L 136.2816 211.977551 
L 137.1744 223.480214 
L 138.0672 218.784055 
L 138.96 219.541825 
L 139.8528 203.012851 
L 140.7456 217.571061 
L 141.6384 210.364789 
L 142.5312 208.970521 
L 143.424 209.112223 
L 144.3168 214.036956 
L 145.2096 218.278685 
L 146.1024 219.623049 
L 146.9952 230.437431 
L 147.888 213.965792 
L 148.7808 219.852791 
L 149.6736 205.746042 
L 150.5664 221.943733 
L 151.4592 219.078599 
L 152.352 213.608127 
L 153.2448 214.915858 
L 154.1376 223.307879 
L 155.0304 219.756688 
L 155.9232 213.084335 
L 156.816 216.395482 
L 157.7088 216.391169 
L 158.6016 218.167819 
L 159.4944 211.893508 
L 160.3872 213.45064 
L 161.28 222.843628 
L 162.1728 220.487911 
L 163.0656 216.339759 
L 163.9584 210.34967 
L 164.8512 208.371961 
L 165.744 217.876953 
L 166.6368 206.867623 
L 167.5296 209.371787 
L 168.4224 202.511808 
L 169.3152 214.688273 
L 170.208 218.813542 
L 171.1008 225.144066 
L 171.9936 211.025353 
L 172.8864 218.267384 
L 173.7792 217.464325 
L 174.672 221.090739 
L 175.5648 211.7678 
L 176.4576 210.808446 
L 177.3504 218.211121 
L 178.2432 211.401062 
L 179.136 216.922555 
L 180.0288 209.681734 
L 180.9216 213.001461 
L 181.8144 210.459817 
L 182.7072 216.647891 
L 183.6 220.779203 
L 184.4928 215.512777 
L 185.3856 213.300436 
L 186.2784 206.260467 
L 187.1712 218.584089 
L 188.064 228.173894 
L 189.8496 210.695233 
L 190.7424 209.014955 
L 191.6352 227.28663 
L 192.528 211.970228 
L 193.4208 223.899152 
L 194.3136 221.799492 
L 195.2064 216.811651 
L 196.0992 203.616789 
L 196.992 219.823056 
L 197.8848 215.38703 
L 198.7776 218.175303 
L 199.6704 215.71595 
L 200.5632 208.76667 
L 202.3488 225.625818 
L 203.2416 219.245844 
L 204.1344 207.879745 
L 205.0272 209.636143 
L 205.92 228.12022 
L 206.8128 212.886332 
L 207.7056 208.662242 
L 208.5984 209.722237 
L 209.4912 210.486382 
L 210.384 211.849999 
L 211.2768 216.211886 
L 212.1696 221.322822 
L 213.0624 208.705821 
L 213.9552 214.160325 
L 215.7408 216.526275 
L 216.6336 222.339826 
L 217.5264 225.998931 
L 218.4192 213.171204 
L 219.312 225.245395 
L 220.2048 222.917473 
L 221.0976 222.672538 
L 221.9904 219.135469 
L 222.8832 218.114019 
L 223.776 220.229505 
L 224.6688 220.43127 
L 225.5616 222.763967 
L 226.4544 215.081418 
L 227.3472 214.958687 
L 228.24 224.059837 
L 229.1328 212.365286 
L 230.0256 225.525618 
L 230.9184 216.111787 
L 231.8112 213.666826 
L 233.5968 218.00254 
L 234.4896 214.93209 
L 235.3824 226.132593 
L 236.2752 222.925846 
L 237.168 216.09767 
L 238.0608 210.237561 
L 238.9536 228.982343 
L 239.8464 214.135607 
L 240.7392 209.597631 
L 242.5248 217.295123 
L 243.4176 218.188109 
L 244.3104 212.060089 
L 245.2032 214.625604 
L 246.096 216.590171 
L 246.9888 220.21244 
L 247.8816 214.019626 
L 248.7744 216.262323 
L 249.6672 216.877662 
L 250.56 217.110382 
L 251.4528 216.73002 
L 253.2384 206.952244 
L 254.1312 212.447317 
L 255.024 226.081457 
L 255.9168 218.520491 
L 256.8096 218.203448 
L 257.7024 204.392916 
L 258.5952 221.44412 
L 259.488 221.031462 
L 260.3808 214.366479 
L 261.2736 218.636596 
L 262.1664 217.118562 
L 263.0592 213.756444 
L 263.952 209.709829 
L 264.8448 229.363698 
L 265.7376 225.672298 
L 266.6304 211.631093 
L 267.5232 207.695925 
L 269.3088 206.36773 
L 270.2016 221.426119 
L 271.0944 212.398498 
L 271.9872 208.367294 
L 272.88 219.549807 
L 273.7728 227.871907 
L 274.6656 211.600478 
L 275.5584 214.835196 
L 276.4512 214.704191 
L 277.344 223.024888 
L 278.2368 205.017576 
L 279.1296 221.570664 
L 280.0224 217.061505 
L 280.9152 202.835305 
L 281.808 214.556269 
L 282.7008 217.8694 
L 283.5936 220.340233 
L 284.4864 214.638649 
L 286.272 211.724787 
L 287.1648 221.493829 
L 288.0576 208.997055 
L 288.9504 220.275963 
L 289.8432 209.667794 
L 290.736 215.934716 
L 291.6288 219.624247 
L 292.5216 219.282021 
L 293.4144 220.246433 
L 294.3072 209.672794 
L 295.2 195.775688 
L 296.0928 223.132429 
L 296.9856 213.597927 
L 297.8784 205.633061 
L 298.7712 217.384199 
L 299.664 221.583286 
L 300.5568 217.317914 
L 301.4496 212.131011 
L 302.3424 208.103067 
L 303.2352 212.913892 
L 304.128 220.590886 
L 305.0208 219.182265 
L 305.9136 219.758389 
L 306.8064 206.676592 
L 307.6992 211.853097 
L 308.592 226.568098 
L 309.4848 212.567806 
L 310.3776 214.493606 
L 311.2704 212.570276 
L 312.1632 211.983209 
L 313.056 216.712076 
L 313.9488 217.058713 
L 314.8416 224.091083 
L 315.7344 225.793045 
L 316.6272 222.920643 
L 317.52 211.698836 
L 318.4128 216.900608 
L 319.3056 211.090567 
L 320.1984 225.687888 
L 321.0912 206.342335 
L 321.984 208.848494 
L 322.8768 227.13518 
L 323.7696 207.318229 
L 324.6624 214.793694 
L 325.5552 215.069087 
L 326.448 211.901343 
L 327.3408 216.959765 
L 328.2336 217.753437 
L 329.1264 217.173427 
L 330.0192 223.394322 
L 330.912 225.069216 
L 331.8048 208.600199 
L 332.6976 212.317046 
L 333.5904 217.207376 
L 334.4832 227.841571 
L 335.376 220.915922 
L 336.2688 207.805109 
L 337.1616 219.115452 
L 338.0544 224.504562 
L 338.9472 212.480841 
L 339.84 217.32441 
L 340.7328 207.213799 
L 341.6256 210.867246 
L 342.5184 226.202564 
L 343.4112 214.168358 
L 344.304 222.309217 
L 345.1968 208.782569 
L 346.0896 205.506828 
L 346.9824 217.962963 
L 347.8752 215.384052 
L 348.768 209.342551 
L 349.6608 224.909928 
L 350.5536 213.30598 
L 351.4464 215.151419 
L 352.3392 220.407579 
L 353.232 215.204238 
L 354.1248 212.39912 
L 355.0176 207.900717 
L 355.9104 220.037301 
L 356.8032 221.546616 
L 357.696 212.921297 
L 358.5888 207.85521 
L 359.4816 221.052385 
L 360.3744 211.315872 
L 361.2672 215.092004 
L 362.16 209.92023 
L 363.0528 203.574043 
L 363.9456 220.879877 
L 364.8384 226.097207 
L 365.7312 209.429412 
L 366.624 215.642449 
L 367.5168 215.291366 
L 368.4096 217.619769 
L 369.3024 218.605252 
L 370.1952 215.421105 
L 371.088 218.394856 
L 371.9808 212.514636 
L 372.8736 218.602386 
L 373.7664 218.478222 
L 374.6592 207.528734 
L 375.552 213.395354 
L 376.4448 205.691706 
L 377.3376 211.066231 
L 378.2304 224.272125 
L 379.1232 220.518636 
L 380.016 210.813711 
L 380.9088 220.220453 
L 381.8016 213.074541 
L 382.6944 213.463888 
L 383.5872 214.766425 
L 384.48 216.673888 
L 385.3728 214.236082 
L 386.2656 210.05326 
L 387.1584 209.933794 
L 388.0512 207.610769 
L 388.944 214.267768 
L 389.8368 214.525533 
L 390.7296 215.872603 
L 391.6224 213.788392 
L 392.5152 214.710243 
L 393.408 214.870791 
L 394.3008 222.393804 
L 395.1936 216.071147 
L 396.0864 215.867445 
L 396.9792 223.769134 
L 397.872 224.130102 
L 398.7648 218.590679 
L 399.6576 208.376652 
L 400.5504 216.9851 
L 401.4432 216.753564 
L 402.336 227.391918 
L 403.2288 213.65086 
L 404.1216 216.241587 
L 405.0144 216.811667 
L 405.9072 219.097856 
L 406.8 220.903966 
L 407.6928 209.387184 
L 408.5856 216.337289 
L 409.4784 206.760949 
L 410.3712 213.246599 
L 411.264 222.252814 
L 412.1568 220.388002 
L 413.0496 217.046498 
L 413.9424 205.9716 
L 414.8352 209.358827 
L 415.728 209.068054 
L 416.6208 215.545907 
L 417.5136 216.991675 
L 418.4064 218.984669 
L 419.2992 208.353673 
L 420.192 224.850694 
L 421.0848 212.904705 
L 421.9776 212.69263 
L 422.8704 211.744751 
L 423.7632 218.976703 
L 424.656 216.191675 
L 425.5488 218.101608 
L 426.4416 211.733235 
L 427.3344 218.113542 
L 428.2272 217.363184 
L 429.12 220.221701 
L 430.0128 212.761641 
L 430.9056 200.352188 
L 431.7984 209.972476 
L 432.6912 217.858089 
L 433.584 215.635856 
L 434.4768 223.326562 
L 435.3696 202.02604 
L 436.2624 216.988201 
L 437.1552 229.362828 
L 438.048 215.219758 
L 438.9408 213.451609 
L 439.8336 216.561578 
L 440.7264 212.463389 
L 442.512 225.37404 
L 443.4048 216.799341 
L 444.2976 212.718562 
L 445.1904 206.586848 
L 446.0832 216.039856 
L 446.976 209.658182 
L 447.8688 209.819778 
L 448.7616 222.425491 
L 449.6544 211.257751 
L 450.5472 222.423542 
L 451.44 216.126127 
L 452.3328 215.173908 
L 453.2256 220.360316 
L 454.1184 214.123957 
L 455.0112 209.619115 
L 455.904 214.964653 
L 456.7968 216.641763 
L 457.6896 225.874373 
L 458.5824 220.282562 
L 459.4752 228.071216 
L 460.368 215.507515 
L 461.2608 215.59494 
L 462.1536 217.745056 
L 463.0464 220.715701 
L 463.9392 219.900901 
L 464.832 217.160037 
L 465.7248 222.83843 
L 466.6176 215.900888 
L 467.5104 226.917618 
L 468.4032 221.008322 
L 469.296 211.560662 
L 471.0816 226.962928 
L 471.9744 210.334904 
L 472.8672 217.607303 
L 473.76 218.970606 
L 474.6528 214.446312 
L 475.5456 213.50688 
L 476.4384 220.470777 
L 477.3312 215.042731 
L 478.224 214.030404 
L 479.1168 209.750806 
L 480.0096 214.356513 
L 480.9024 216.865382 
L 481.7952 222.382673 
L 482.688 217.735217 
L 483.5808 219.31787 
L 484.4736 212.04856 
L 485.3664 222.3205 
L 486.2592 207.460891 
L 487.152 207.977226 
L 488.9376 223.319751 
L 489.8304 221.580047 
L 490.7232 214.103612 
L 491.616 204.386087 
L 492.5088 214.4134 
L 493.4016 217.550922 
L 494.2944 207.699391 
L 495.1872 208.215378 
L 496.08 218.47646 
L 496.9728 220.004015 
L 497.8656 215.151737 
L 498.7584 211.687473 
L 499.6512 215.794955 
L 500.544 219.23874 
L 501.4368 215.443319 
L 502.3296 219.136661 
L 503.2224 222.260585 
L 504.1152 213.611271 
L 505.008 223.049466 
L 506.7936 216.587115 
L 507.6864 207.475837 
L 508.5792 214.954732 
L 509.472 217.525639 
L 510.3648 222.083427 
L 511.2576 215.67629 
L 512.1504 221.416788 
L 513.0432 233.871603 
L 513.936 215.965457 
L 514.8288 218.075577 
L 515.7216 217.867367 
L 516.6144 223.811653 
L 517.5072 214.340278 
L 518.4 213.788407 
L 519.2928 226.356405 
L 519.2928 226.356405 
" style="fill:none;stroke:#800000;stroke-linecap:square;"/>
   </g>
   <g id="patch_3">
    <path d="M 72 388.8 
L 72 43.2 
" style="fill:none;stroke:#000000;stroke-linecap:square;stroke-linejoin:miter;"/>
   </g>
   <g id="patch_4">
    <path d="M 518.4 388.8 
L 518.4 43.2 
" style="fill:none;stroke:#000000;stroke-linecap:square;stroke-linejoin:miter;"/>
   </g>
   <g id="patch_5">
    <path d="M 72 388.8 
L 518.4 388.8 
" style="fill:none;stroke:#000000;stroke-linecap:square;stroke-linejoin:miter;"/>
   </g>
   <g id="patch_6">
    <path d="M 72 43.2 
L 518.4 43.2 
" style="fill:none;stroke:#000000;stroke-linecap:square;stroke-linejoin:miter;"/>
   </g>
   <g id="matplotlib.axis_1">
    <g id="xtick_1">
     <g id="line2d_7">
      <path clip-path="url(#p50ea49c79b)" d="M 72 388.8 
L 72 43.2 
" style="fill:none;stroke:#000000;stroke-dasharray:1,3;stroke-dashoffset:0;stroke-width:0.5;"/>
     </g>
     <g id="line2d_8">
      <defs>
       <path d="M 0 0 
L 0 -4 
" id="m27bc3efe85" style="stroke:#000000;stroke-width:0.5;"/>
      </defs>
      <g>
       <use style="stroke:#000000;stroke-width:0.5;" x="72" xlink:href="#m27bc3efe85" y="388.8"/>
      </g>
     </g>
     <g id="line2d_9">
      <defs>
       <path d="M 0 0 
L 0 4 
" id="m38c0d303b9" style="stroke:#000000;stroke-width:0.5;"/>
      </defs>
      <g>
       <use style="stroke:#000000;stroke-width:0.5;" x="72" xlink:href="#m38c0d303b9" y="43.2"/>
      </g>
     </g>
     <g id="text_1">
      <!-- 0 -->
      <g transform="translate(68.1825 401.918125)scale(0.12 -0.12)">
       <defs>
        <path d="M 31.78125 66.40625 
Q 24.171875 66.40625 20.328125 58.90625 
Q 16.5 51.421875 16.5 36.375 
Q 16.5 21.390625 20.328125 13.890625 
Q 24.171875 6.390625 31.78125 6.390625 
Q 39.453125 6.390625 43.28125 13.890625 
Q 47.125 21.390625 47.125 36.375 
Q 47.125 51.421875 43.28125 58.90625 
Q 39.453125 66.40625 31.78125 66.40625 
z
M 31.78125 74.21875 
Q 44.046875 74.21875 50.515625 64.515625 
Q 56.984375 54.828125 56.984375 36.375 
Q 56.984375 17.96875 50.515625 8.265625 
Q 44.046875 -1.421875 31.78125 -1.421875 
Q 19.53125 -1.421875 13.0625 8.265625 
Q 6.59375 17.96875 6.59375 36.375 
Q 6.59375 54.828125 13.0625 64.515625 
Q 19.53125 74.21875 31.78125 74.21875 
z
" id="DejaVuSans-48"/>
       </defs>
       <use xlink:href="#DejaVuSans-48"/>
      </g>
     </g>
    </g>
    <g id="xtick_2">
     <g id="line2d_10">
      <path clip-path="url(#p50ea49c79b)" d="M 161.28 388.8 
L 161.28 43.2 
" style="fill:none;stroke:#000000;stroke-dasharray:1,3;stroke-dashoffset:0;stroke-width:0.5;"/>
     </g>
     <g id="line2d_11">
      <g>
       <use style="stroke:#000000;stroke-width:0.5;" x="161.28" xlink:href="#m27bc3efe85" y="388.8"/>
      </g>
     </g>
     <g id="line2d_12">
      <g>
       <use style="stroke:#000000;stroke-width:0.5;" x="161.28" xlink:href="#m38c0d303b9" y="43.2"/>
      </g>
     </g>
     <g id="text_2">
      <!-- 100 -->
      <g transform="translate(149.8275 401.918125)scale(0.12 -0.12)">
       <defs>
        <path d="M 12.40625 8.296875 
L 28.515625 8.296875 
L 28.515625 63.921875 
L 10.984375 60.40625 
L 10.984375 69.390625 
L 28.421875 72.90625 
L 38.28125 72.90625 
L 38.28125 8.296875 
L 54.390625 8.296875 
L 54.390625 0 
L 12.40625 0 
z
" id="DejaVuSans-49"/>
       </defs>
       <use xlink:href="#DejaVuSans-49"/>
       <use x="63.623047" xlink:href="#DejaVuSans-48"/>
       <use x="127.246094" xlink:href="#DejaVuSans-48"/>
      </g>
     </g>
    </g>
    <g id="xtick_3">
     <g id="line2d_13">
      <path clip-path="url(#p50ea49c79b)" d="M 250.56 388.8 
L 250.56 43.2 
" style="fill:none;stroke:#000000;stroke-dasharray:1,3;stroke-dashoffset:0;stroke-width:0.5;"/>
     </g>
     <g id="line2d_14">
      <g>
       <use style="stroke:#000000;stroke-width:0.5;" x="250.56" xlink:href="#m27bc3efe85" y="388.8"/>
      </g>
     </g>
     <g id="line2d_15">
      <g>
       <use style="stroke:#000000;stroke-width:0.5;" x="250.56" xlink:href="#m38c0d303b9" y="43.2"/>
      </g>
     </g>
     <g id="text_3">
      <!-- 200 -->
      <g transform="translate(239.1075 401.918125)scale(0.12 -0.12)">
       <defs>
        <path d="M 19.1875 8.296875 
L 53.609375 8.296875 
L 53.609375 0 
L 7.328125 0 
L 7.328125 8.296875 
Q 12.9375 14.109375 22.625 23.890625 
Q 32.328125 33.6875 34.8125 36.53125 
Q 39.546875 41.84375 41.421875 45.53125 
Q 43.3125 49.21875 43.3125 52.78125 
Q 43.3125 58.59375 39.234375 62.25 
Q 35.15625 65.921875 28.609375 65.921875 
Q 23.96875 65.921875 18.8125 64.3125 
Q 13.671875 62.703125 7.8125 59.421875 
L 7.8125 69.390625 
Q 13.765625 71.78125 18.9375 73 
Q 24.125 74.21875 28.421875 74.21875 
Q 39.75 74.21875 46.484375 68.546875 
Q 53.21875 62.890625 53.21875 53.421875 
Q 53.21875 48.921875 51.53125 44.890625 
Q 49.859375 40.875 45.40625 35.40625 
Q 44.1875 33.984375 37.640625 27.21875 
Q 31.109375 20.453125 19.1875 8.296875 
z
" id="DejaVuSans-50"/>
       </defs>
       <use xlink:href="#DejaVuSans-50"/>
       <use x="63.623047" xlink:href="#DejaVuSans-48"/>
       <use x="127.246094" xlink:href="#DejaVuSans-48"/>
      </g>
     </g>
    </g>
    <g id="xtick_4">
     <g id="line2d_16">
      <path clip-path="url(#p50ea49c79b)" d="M 339.84 388.8 
L 339.84 43.2 
" style="fill:none;stroke:#000000;stroke-dasharray:1,3;stroke-dashoffset:0;stroke-width:0.5;"/>
     </g>
     <g id="line2d_17">
      <g>
       <use style="stroke:#000000;stroke-width:0.5;" x="339.84" xlink:href="#m27bc3efe85" y="388.8"/>
      </g>
     </g>
     <g id="line2d_18">
      <g>
       <use style="stroke:#000000;stroke-width:0.5;" x="339.84" xlink:href="#m38c0d303b9" y="43.2"/>
      </g>
     </g>
     <g id="text_4">
      <!-- 300 -->
      <g transform="translate(328.3875 401.918125)scale(0.12 -0.12)">
       <defs>
        <path d="M 40.578125 39.3125 
Q 47.65625 37.796875 51.625 33 
Q 55.609375 28.21875 55.609375 21.1875 
Q 55.609375 10.40625 48.1875 4.484375 
Q 40.765625 -1.421875 27.09375 -1.421875 
Q 22.515625 -1.421875 17.65625 -0.515625 
Q 12.796875 0.390625 7.625 2.203125 
L 7.625 11.71875 
Q 11.71875 9.328125 16.59375 8.109375 
Q 21.484375 6.890625 26.8125 6.890625 
Q 36.078125 6.890625 40.9375 10.546875 
Q 45.796875 14.203125 45.796875 21.1875 
Q 45.796875 27.640625 41.28125 31.265625 
Q 36.765625 34.90625 28.71875 34.90625 
L 20.21875 34.90625 
L 20.21875 43.015625 
L 29.109375 43.015625 
Q 36.375 43.015625 40.234375 45.921875 
Q 44.09375 48.828125 44.09375 54.296875 
Q 44.09375 59.90625 40.109375 62.90625 
Q 36.140625 65.921875 28.71875 65.921875 
Q 24.65625 65.921875 20.015625 65.03125 
Q 15.375 64.15625 9.8125 62.3125 
L 9.8125 71.09375 
Q 15.4375 72.65625 20.34375 73.4375 
Q 25.25 74.21875 29.59375 74.21875 
Q 40.828125 74.21875 47.359375 69.109375 
Q 53.90625 64.015625 53.90625 55.328125 
Q 53.90625 49.265625 50.4375 45.09375 
Q 46.96875 40.921875 40.578125 39.3125 
z
" id="DejaVuSans-51"/>
       </defs>
       <use xlink:href="#DejaVuSans-51"/>
       <use x="63.623047" xlink:href="#DejaVuSans-48"/>
       <use x="127.246094" xlink:href="#DejaVuSans-48"/>
      </g>
     </g>
    </g>
    <g id="xtick_5">
     <g id="line2d_19">
      <path clip-path="url(#p50ea49c79b)" d="M 429.12 388.8 
L 429.12 43.2 
" style="fill:none;stroke:#000000;stroke-dasharray:1,3;stroke-dashoffset:0;stroke-width:0.5;"/>
     </g>
     <g id="line2d_20">
      <g>
       <use style="stroke:#000000;stroke-width:0.5;" x="429.12" xlink:href="#m27bc3efe85" y="388.8"/>
      </g>
     </g>
     <g id="line2d_21">
      <g>
       <use style="stroke:#000000;stroke-width:0.5;" x="429.12" xlink:href="#m38c0d303b9" y="43.2"/>
      </g>
     </g>
     <g id="text_5">
      <!-- 400 -->
      <g transform="translate(417.6675 401.918125)scale(0.12 -0.12)">
       <defs>
        <path d="M 37.796875 64.3125 
L 12.890625 25.390625 
L 37.796875 25.390625 
z
M 35.203125 72.90625 
L 47.609375 72.90625 
L 47.609375 25.390625 
L 58.015625 25.390625 
L 58.015625 17.1875 
L 47.609375 17.1875 
L 47.609375 0 
L 37.796875 0 
L 37.796875 17.1875 
L 4.890625 17.1875 
L 4.890625 26.703125 
z
" id="DejaVuSans-52"/>
       </defs>
       <use xlink:href="#DejaVuSans-52"/>
       <use x="63.623047" xlink:href="#DejaVuSans-48"/>
       <use x="127.246094" xlink:href="#DejaVuSans-48"/>
      </g>
     </g>
    </g>
    <g id="xtick_6">
     <g id="line2d_22">
      <path clip-path="url(#p50ea49c79b)" d="M 518.4 388.8 
L 518.4 43.2 
" style="fill:none;stroke:#000000;stroke-dasharray:1,3;stroke-dashoffset:0;stroke-width:0.5;"/>
     </g>
     <g id="line2d_23">
      <g>
       <use style="stroke:#000000;stroke-width:0.5;" x="518.4" xlink:href="#m27bc3efe85" y="388.8"/>
      </g>
     </g>
     <g id="line2d_24">
      <g>
       <use style="stroke:#000000;stroke-width:0.5;" x="518.4" xlink:href="#m38c0d303b9" y="43.2"/>
      </g>
     </g>
     <g id="text_6">
      <!-- 500 -->
      <g transform="translate(506.9475 401.918125)scale(0.12 -0.12)">
       <defs>
        <path d="M 10.796875 72.90625 
L 49.515625 72.90625 
L 49.515625 64.59375 
L 19.828125 64.59375 
L 19.828125 46.734375 
Q 21.96875 47.46875 24.109375 47.828125 
Q 26.265625 48.1875 28.421875 48.1875 
Q 40.625 48.1875 47.75 41.5 
Q 54.890625 34.8125 54.890625 23.390625 
Q 54.890625 11.625 47.5625 5.09375 
Q 40.234375 -1.421875 26.90625 -1.421875 
Q 22.3125 -1.421875 17.546875 -0.640625 
Q 12.796875 0.140625 7.71875 1.703125 
L 7.71875 11.625 
Q 12.109375 9.234375 16.796875 8.0625 
Q 21.484375 6.890625 26.703125 6.890625 
Q 35.15625 6.890625 40.078125 11.328125 
Q 45.015625 15.765625 45.015625 23.390625 
Q 45.015625 31 40.078125 35.4375 
Q 35.15625 39.890625 26.703125 39.890625 
Q 22.75 39.890625 18.8125 39.015625 
Q 14.890625 38.140625 10.796875 36.28125 
z
" id="DejaVuSans-53"/>
       </defs>
       <use xlink:href="#DejaVuSans-53"/>
       <use x="63.623047" xlink:href="#DejaVuSans-48"/>
       <use x="127.246094" xlink:href="#DejaVuSans-48"/>
      </g>
     </g>
    </g>
    <g id="text_7">
     <!-- Lag -->
     <g transform="translate(284.370937 418.531875)scale(0.12 -0.12)">
      <defs>
       <path d="M 9.8125 72.90625 
L 19.671875 72.90625 
L 19.671875 8.296875 
L 55.171875 8.296875 
L 55.171875 0 
L 9.8125 0 
z
" id="DejaVuSans-76"/>
       <path d="M 34.28125 27.484375 
Q 23.390625 27.484375 19.1875 25 
Q 14.984375 22.515625 14.984375 16.5 
Q 14.984375 11.71875 18.140625 8.90625 
Q 21.296875 6.109375 26.703125 6.109375 
Q 34.1875 6.109375 38.703125 11.40625 
Q 43.21875 16.703125 43.21875 25.484375 
L 43.21875 27.484375 
z
M 52.203125 31.203125 
L 52.203125 0 
L 43.21875 0 
L 43.21875 8.296875 
Q 40.140625 3.328125 35.546875 0.953125 
Q 30.953125 -1.421875 24.3125 -1.421875 
Q 15.921875 -1.421875 10.953125 3.296875 
Q 6 8.015625 6 15.921875 
Q 6 25.140625 12.171875 29.828125 
Q 18.359375 34.515625 30.609375 34.515625 
L 43.21875 34.515625 
L 43.21875 35.40625 
Q 43.21875 41.609375 39.140625 45 
Q 35.0625 48.390625 27.6875 48.390625 
Q 23 48.390625 18.546875 47.265625 
Q 14.109375 46.140625 10.015625 43.890625 
L 10.015625 52.203125 
Q 14.9375 54.109375 19.578125 55.046875 
Q 24.21875 56 28.609375 56 
Q 40.484375 56 46.34375 49.84375 
Q 52.203125 43.703125 52.203125 31.203125 
z
" id="DejaVuSans-97"/>
       <path d="M 45.40625 27.984375 
Q 45.40625 37.75 41.375 43.109375 
Q 37.359375 48.484375 30.078125 48.484375 
Q 22.859375 48.484375 18.828125 43.109375 
Q 14.796875 37.75 14.796875 27.984375 
Q 14.796875 18.265625 18.828125 12.890625 
Q 22.859375 7.515625 30.078125 7.515625 
Q 37.359375 7.515625 41.375 12.890625 
Q 45.40625 18.265625 45.40625 27.984375 
z
M 54.390625 6.78125 
Q 54.390625 -7.171875 48.1875 -13.984375 
Q 42 -20.796875 29.203125 -20.796875 
Q 24.46875 -20.796875 20.265625 -20.09375 
Q 16.0625 -19.390625 12.109375 -17.921875 
L 12.109375 -9.1875 
Q 16.0625 -11.328125 19.921875 -12.34375 
Q 23.78125 -13.375 27.78125 -13.375 
Q 36.625 -13.375 41.015625 -8.765625 
Q 45.40625 -4.15625 45.40625 5.171875 
L 45.40625 9.625 
Q 42.625 4.78125 38.28125 2.390625 
Q 33.9375 0 27.875 0 
Q 17.828125 0 11.671875 7.65625 
Q 5.515625 15.328125 5.515625 27.984375 
Q 5.515625 40.671875 11.671875 48.328125 
Q 17.828125 56 27.875 56 
Q 33.9375 56 38.28125 53.609375 
Q 42.625 51.21875 45.40625 46.390625 
L 45.40625 54.6875 
L 54.390625 54.6875 
z
" id="DejaVuSans-103"/>
      </defs>
      <use xlink:href="#DejaVuSans-76"/>
      <use x="55.712891" xlink:href="#DejaVuSans-97"/>
      <use x="116.992188" xlink:href="#DejaVuSans-103"/>
     </g>
    </g>
   </g>
   <g id="matplotlib.axis_2">
    <g id="ytick_1">
     <g id="line2d_25">
      <path clip-path="url(#p50ea49c79b)" d="M 72 388.8 
L 518.4 388.8 
" style="fill:none;stroke:#000000;stroke-dasharray:1,3;stroke-dashoffset:0;stroke-width:0.5;"/>
     </g>
     <g id="line2d_26">
      <defs>
       <path d="M 0 0 
L 4 0 
" id="m95dba71d7c" style="stroke:#000000;stroke-width:0.5;"/>
      </defs>
      <g>
       <use style="stroke:#000000;stroke-width:0.5;" x="72" xlink:href="#m95dba71d7c" y="388.8"/>
      </g>
     </g>
     <g id="line2d_27">
      <defs>
       <path d="M 0 0 
L -4 0 
" id="ma553848607" style="stroke:#000000;stroke-width:0.5;"/>
      </defs>
      <g>
       <use style="stroke:#000000;stroke-width:0.5;" x="518.4" xlink:href="#ma553848607" y="388.8"/>
      </g>
     </g>
     <g id="text_8">
      <!-- −0.3 -->
      <g transform="translate(38.860625 393.359063)scale(0.12 -0.12)">
       <defs>
        <path d="M 10.59375 35.5 
L 73.1875 35.5 
L 73.1875 27.203125 
L 10.59375 27.203125 
z
" id="DejaVuSans-8722"/>
        <path d="M 10.6875 12.40625 
L 21 12.40625 
L 21 0 
L 10.6875 0 
z
" id="DejaVuSans-46"/>
       </defs>
       <use xlink:href="#DejaVuSans-8722"/>
       <use x="83.789062" xlink:href="#DejaVuSans-48"/>
       <use x="147.412109" xlink:href="#DejaVuSans-46"/>
       <use x="179.199219" xlink:href="#DejaVuSans-51"/>
      </g>
     </g>
    </g>
    <g id="ytick_2">
     <g id="line2d_28">
      <path clip-path="url(#p50ea49c79b)" d="M 72 331.2 
L 518.4 331.2 
" style="fill:none;stroke:#000000;stroke-dasharray:1,3;stroke-dashoffset:0;stroke-width:0.5;"/>
     </g>
     <g id="line2d_29">
      <g>
       <use style="stroke:#000000;stroke-width:0.5;" x="72" xlink:href="#m95dba71d7c" y="331.2"/>
      </g>
     </g>
     <g id="line2d_30">
      <g>
       <use style="stroke:#000000;stroke-width:0.5;" x="518.4" xlink:href="#ma553848607" y="331.2"/>
      </g>
     </g>
     <g id="text_9">
      <!-- −0.2 -->
      <g transform="translate(38.860625 335.759063)scale(0.12 -0.12)">
       <use xlink:href="#DejaVuSans-8722"/>
       <use x="83.789062" xlink:href="#DejaVuSans-48"/>
       <use x="147.412109" xlink:href="#DejaVuSans-46"/>
       <use x="179.199219" xlink:href="#DejaVuSans-50"/>
      </g>
     </g>
    </g>
    <g id="ytick_3">
     <g id="line2d_31">
      <path clip-path="url(#p50ea49c79b)" d="M 72 273.6 
L 518.4 273.6 
" style="fill:none;stroke:#000000;stroke-dasharray:1,3;stroke-dashoffset:0;stroke-width:0.5;"/>
     </g>
     <g id="line2d_32">
      <g>
       <use style="stroke:#000000;stroke-width:0.5;" x="72" xlink:href="#m95dba71d7c" y="273.6"/>
      </g>
     </g>
     <g id="line2d_33">
      <g>
       <use style="stroke:#000000;stroke-width:0.5;" x="518.4" xlink:href="#ma553848607" y="273.6"/>
      </g>
     </g>
     <g id="text_10">
      <!-- −0.1 -->
      <g transform="translate(38.860625 278.159063)scale(0.12 -0.12)">
       <use xlink:href="#DejaVuSans-8722"/>
       <use x="83.789062" xlink:href="#DejaVuSans-48"/>
       <use x="147.412109" xlink:href="#DejaVuSans-46"/>
       <use x="179.199219" xlink:href="#DejaVuSans-49"/>
      </g>
     </g>
    </g>
    <g id="ytick_4">
     <g id="line2d_34">
      <path clip-path="url(#p50ea49c79b)" d="M 72 216 
L 518.4 216 
" style="fill:none;stroke:#000000;stroke-dasharray:1,3;stroke-dashoffset:0;stroke-width:0.5;"/>
     </g>
     <g id="line2d_35">
      <g>
       <use style="stroke:#000000;stroke-width:0.5;" x="72" xlink:href="#m95dba71d7c" y="216"/>
      </g>
     </g>
     <g id="line2d_36">
      <g>
       <use style="stroke:#000000;stroke-width:0.5;" x="518.4" xlink:href="#ma553848607" y="216"/>
      </g>
     </g>
     <g id="text_11">
      <!-- 0.0 -->
      <g transform="translate(48.91625 220.559063)scale(0.12 -0.12)">
       <use xlink:href="#DejaVuSans-48"/>
       <use x="63.623047" xlink:href="#DejaVuSans-46"/>
       <use x="95.410156" xlink:href="#DejaVuSans-48"/>
      </g>
     </g>
    </g>
    <g id="ytick_5">
     <g id="line2d_37">
      <path clip-path="url(#p50ea49c79b)" d="M 72 158.4 
L 518.4 158.4 
" style="fill:none;stroke:#000000;stroke-dasharray:1,3;stroke-dashoffset:0;stroke-width:0.5;"/>
     </g>
     <g id="line2d_38">
      <g>
       <use style="stroke:#000000;stroke-width:0.5;" x="72" xlink:href="#m95dba71d7c" y="158.4"/>
      </g>
     </g>
     <g id="line2d_39">
      <g>
       <use style="stroke:#000000;stroke-width:0.5;" x="518.4" xlink:href="#ma553848607" y="158.4"/>
      </g>
     </g>
     <g id="text_12">
      <!-- 0.1 -->
      <g transform="translate(48.91625 162.959062)scale(0.12 -0.12)">
       <use xlink:href="#DejaVuSans-48"/>
       <use x="63.623047" xlink:href="#DejaVuSans-46"/>
       <use x="95.410156" xlink:href="#DejaVuSans-49"/>
      </g>
     </g>
    </g>
    <g id="ytick_6">
     <g id="line2d_40">
      <path clip-path="url(#p50ea49c79b)" d="M 72 100.8 
L 518.4 100.8 
" style="fill:none;stroke:#000000;stroke-dasharray:1,3;stroke-dashoffset:0;stroke-width:0.5;"/>
     </g>
     <g id="line2d_41">
      <g>
       <use style="stroke:#000000;stroke-width:0.5;" x="72" xlink:href="#m95dba71d7c" y="100.8"/>
      </g>
     </g>
     <g id="line2d_42">
      <g>
       <use style="stroke:#000000;stroke-width:0.5;" x="518.4" xlink:href="#ma553848607" y="100.8"/>
      </g>
     </g>
     <g id="text_13">
      <!-- 0.2 -->
      <g transform="translate(48.91625 105.359062)scale(0.12 -0.12)">
       <use xlink:href="#DejaVuSans-48"/>
       <use x="63.623047" xlink:href="#DejaVuSans-46"/>
       <use x="95.410156" xlink:href="#DejaVuSans-50"/>
      </g>
     </g>
    </g>
    <g id="ytick_7">
     <g id="line2d_43">
      <path clip-path="url(#p50ea49c79b)" d="M 72 43.2 
L 518.4 43.2 
" style="fill:none;stroke:#000000;stroke-dasharray:1,3;stroke-dashoffset:0;stroke-width:0.5;"/>
     </g>
     <g id="line2d_44">
      <g>
       <use style="stroke:#000000;stroke-width:0.5;" x="72" xlink:href="#m95dba71d7c" y="43.2"/>
      </g>
     </g>
     <g id="line2d_45">
      <g>
       <use style="stroke:#000000;stroke-width:0.5;" x="518.4" xlink:href="#ma553848607" y="43.2"/>
      </g>
     </g>
     <g id="text_14">
      <!-- 0.3 -->
      <g transform="translate(48.91625 47.759062)scale(0.12 -0.12)">
       <use xlink:href="#DejaVuSans-48"/>
       <use x="63.623047" xlink:href="#DejaVuSans-46"/>
       <use x="95.410156" xlink:href="#DejaVuSans-51"/>
      </g>
     </g>
    </g>
    <g id="text_15">
     <!-- Autocorrelation -->
     <g transform="translate(31.365 262.359375)rotate(-90)scale(0.12 -0.12)">
      <defs>
       <path d="M 34.1875 63.1875 
L 20.796875 26.90625 
L 47.609375 26.90625 
z
M 28.609375 72.90625 
L 39.796875 72.90625 
L 67.578125 0 
L 57.328125 0 
L 50.6875 18.703125 
L 17.828125 18.703125 
L 11.1875 0 
L 0.78125 0 
z
" id="DejaVuSans-65"/>
       <path d="M 8.5 21.578125 
L 8.5 54.6875 
L 17.484375 54.6875 
L 17.484375 21.921875 
Q 17.484375 14.15625 20.5 10.265625 
Q 23.53125 6.390625 29.59375 6.390625 
Q 36.859375 6.390625 41.078125 11.03125 
Q 45.3125 15.671875 45.3125 23.6875 
L 45.3125 54.6875 
L 54.296875 54.6875 
L 54.296875 0 
L 45.3125 0 
L 45.3125 8.40625 
Q 42.046875 3.421875 37.71875 1 
Q 33.40625 -1.421875 27.6875 -1.421875 
Q 18.265625 -1.421875 13.375 4.4375 
Q 8.5 10.296875 8.5 21.578125 
z
M 31.109375 56 
z
" id="DejaVuSans-117"/>
       <path d="M 18.3125 70.21875 
L 18.3125 54.6875 
L 36.8125 54.6875 
L 36.8125 47.703125 
L 18.3125 47.703125 
L 18.3125 18.015625 
Q 18.3125 11.328125 20.140625 9.421875 
Q 21.96875 7.515625 27.59375 7.515625 
L 36.8125 7.515625 
L 36.8125 0 
L 27.59375 0 
Q 17.1875 0 13.234375 3.875 
Q 9.28125 7.765625 9.28125 18.015625 
L 9.28125 47.703125 
L 2.6875 47.703125 
L 2.6875 54.6875 
L 9.28125 54.6875 
L 9.28125 70.21875 
z
" id="DejaVuSans-116"/>
       <path d="M 30.609375 48.390625 
Q 23.390625 48.390625 19.1875 42.75 
Q 14.984375 37.109375 14.984375 27.296875 
Q 14.984375 17.484375 19.15625 11.84375 
Q 23.34375 6.203125 30.609375 6.203125 
Q 37.796875 6.203125 41.984375 11.859375 
Q 46.1875 17.53125 46.1875 27.296875 
Q 46.1875 37.015625 41.984375 42.703125 
Q 37.796875 48.390625 30.609375 48.390625 
z
M 30.609375 56 
Q 42.328125 56 49.015625 48.375 
Q 55.71875 40.765625 55.71875 27.296875 
Q 55.71875 13.875 49.015625 6.21875 
Q 42.328125 -1.421875 30.609375 -1.421875 
Q 18.84375 -1.421875 12.171875 6.21875 
Q 5.515625 13.875 5.515625 27.296875 
Q 5.515625 40.765625 12.171875 48.375 
Q 18.84375 56 30.609375 56 
z
" id="DejaVuSans-111"/>
       <path d="M 48.78125 52.59375 
L 48.78125 44.1875 
Q 44.96875 46.296875 41.140625 47.34375 
Q 37.3125 48.390625 33.40625 48.390625 
Q 24.65625 48.390625 19.8125 42.84375 
Q 14.984375 37.3125 14.984375 27.296875 
Q 14.984375 17.28125 19.8125 11.734375 
Q 24.65625 6.203125 33.40625 6.203125 
Q 37.3125 6.203125 41.140625 7.25 
Q 44.96875 8.296875 48.78125 10.40625 
L 48.78125 2.09375 
Q 45.015625 0.34375 40.984375 -0.53125 
Q 36.96875 -1.421875 32.421875 -1.421875 
Q 20.0625 -1.421875 12.78125 6.34375 
Q 5.515625 14.109375 5.515625 27.296875 
Q 5.515625 40.671875 12.859375 48.328125 
Q 20.21875 56 33.015625 56 
Q 37.15625 56 41.109375 55.140625 
Q 45.0625 54.296875 48.78125 52.59375 
z
" id="DejaVuSans-99"/>
       <path d="M 41.109375 46.296875 
Q 39.59375 47.171875 37.8125 47.578125 
Q 36.03125 48 33.890625 48 
Q 26.265625 48 22.1875 43.046875 
Q 18.109375 38.09375 18.109375 28.8125 
L 18.109375 0 
L 9.078125 0 
L 9.078125 54.6875 
L 18.109375 54.6875 
L 18.109375 46.1875 
Q 20.953125 51.171875 25.484375 53.578125 
Q 30.03125 56 36.53125 56 
Q 37.453125 56 38.578125 55.875 
Q 39.703125 55.765625 41.0625 55.515625 
z
" id="DejaVuSans-114"/>
       <path d="M 56.203125 29.59375 
L 56.203125 25.203125 
L 14.890625 25.203125 
Q 15.484375 15.921875 20.484375 11.0625 
Q 25.484375 6.203125 34.421875 6.203125 
Q 39.59375 6.203125 44.453125 7.46875 
Q 49.3125 8.734375 54.109375 11.28125 
L 54.109375 2.78125 
Q 49.265625 0.734375 44.1875 -0.34375 
Q 39.109375 -1.421875 33.890625 -1.421875 
Q 20.796875 -1.421875 13.15625 6.1875 
Q 5.515625 13.8125 5.515625 26.8125 
Q 5.515625 40.234375 12.765625 48.109375 
Q 20.015625 56 32.328125 56 
Q 43.359375 56 49.78125 48.890625 
Q 56.203125 41.796875 56.203125 29.59375 
z
M 47.21875 32.234375 
Q 47.125 39.59375 43.09375 43.984375 
Q 39.0625 48.390625 32.421875 48.390625 
Q 24.90625 48.390625 20.390625 44.140625 
Q 15.875 39.890625 15.1875 32.171875 
z
" id="DejaVuSans-101"/>
       <path d="M 9.421875 75.984375 
L 18.40625 75.984375 
L 18.40625 0 
L 9.421875 0 
z
" id="DejaVuSans-108"/>
       <path d="M 9.421875 54.6875 
L 18.40625 54.6875 
L 18.40625 0 
L 9.421875 0 
z
M 9.421875 75.984375 
L 18.40625 75.984375 
L 18.40625 64.59375 
L 9.421875 64.59375 
z
" id="DejaVuSans-105"/>
       <path d="M 54.890625 33.015625 
L 54.890625 0 
L 45.90625 0 
L 45.90625 32.71875 
Q 45.90625 40.484375 42.875 44.328125 
Q 39.84375 48.1875 33.796875 48.1875 
Q 26.515625 48.1875 22.3125 43.546875 
Q 18.109375 38.921875 18.109375 30.90625 
L 18.109375 0 
L 9.078125 0 
L 9.078125 54.6875 
L 18.109375 54.6875 
L 18.109375 46.1875 
Q 21.34375 51.125 25.703125 53.5625 
Q 30.078125 56 35.796875 56 
Q 45.21875 56 50.046875 50.171875 
Q 54.890625 44.34375 54.890625 33.015625 
z
" id="DejaVuSans-110"/>
      </defs>
      <use xlink:href="#DejaVuSans-65"/>
      <use x="68.408203" xlink:href="#DejaVuSans-117"/>
      <use x="131.787109" xlink:href="#DejaVuSans-116"/>
      <use x="170.996094" xlink:href="#DejaVuSans-111"/>
      <use x="232.177734" xlink:href="#DejaVuSans-99"/>
      <use x="287.158203" xlink:href="#DejaVuSans-111"/>
      <use x="348.339844" xlink:href="#DejaVuSans-114"/>
      <use x="389.4375" xlink:href="#DejaVuSans-114"/>
      <use x="430.519531" xlink:href="#DejaVuSans-101"/>
      <use x="492.042969" xlink:href="#DejaVuSans-108"/>
      <use x="519.826172" xlink:href="#DejaVuSans-97"/>
      <use x="581.105469" xlink:href="#DejaVuSans-116"/>
      <use x="620.314453" xlink:href="#DejaVuSans-105"/>
      <use x="648.097656" xlink:href="#DejaVuSans-111"/>
      <use x="709.279297" xlink:href="#DejaVuSans-110"/>
     </g>
    </g>
   </g>
   <g id="text_16">
    <!-- Autocorrelation plot -->
    <g transform="translate(213.089625 38.2)scale(0.144 -0.144)">
     <defs>
      <path d="M 53.421875 13.28125 
L 24.03125 13.28125 
L 19.390625 0 
L 0.484375 0 
L 27.484375 72.90625 
L 49.90625 72.90625 
L 76.90625 0 
L 58.015625 0 
z
M 28.71875 26.8125 
L 48.6875 26.8125 
L 38.71875 55.8125 
z
" id="DejaVuSans-Bold-65"/>
      <path d="M 7.8125 21.296875 
L 7.8125 54.6875 
L 25.390625 54.6875 
L 25.390625 49.21875 
Q 25.390625 44.78125 25.34375 38.0625 
Q 25.296875 31.34375 25.296875 29.109375 
Q 25.296875 22.515625 25.640625 19.609375 
Q 25.984375 16.703125 26.8125 15.375 
Q 27.875 13.671875 29.609375 12.734375 
Q 31.34375 11.8125 33.59375 11.8125 
Q 39.0625 11.8125 42.1875 16.015625 
Q 45.3125 20.21875 45.3125 27.6875 
L 45.3125 54.6875 
L 62.796875 54.6875 
L 62.796875 0 
L 45.3125 0 
L 45.3125 7.90625 
Q 41.359375 3.125 36.9375 0.84375 
Q 32.515625 -1.421875 27.203125 -1.421875 
Q 17.71875 -1.421875 12.765625 4.390625 
Q 7.8125 10.203125 7.8125 21.296875 
z
" id="DejaVuSans-Bold-117"/>
      <path d="M 27.484375 70.21875 
L 27.484375 54.6875 
L 45.515625 54.6875 
L 45.515625 42.1875 
L 27.484375 42.1875 
L 27.484375 19 
Q 27.484375 15.1875 29 13.84375 
Q 30.515625 12.5 35.015625 12.5 
L 44 12.5 
L 44 0 
L 29 0 
Q 18.65625 0 14.328125 4.3125 
Q 10.015625 8.640625 10.015625 19 
L 10.015625 42.1875 
L 1.3125 42.1875 
L 1.3125 54.6875 
L 10.015625 54.6875 
L 10.015625 70.21875 
z
" id="DejaVuSans-Bold-116"/>
      <path d="M 34.421875 43.5 
Q 28.609375 43.5 25.5625 39.328125 
Q 22.515625 35.15625 22.515625 27.296875 
Q 22.515625 19.4375 25.5625 15.25 
Q 28.609375 11.078125 34.421875 11.078125 
Q 40.140625 11.078125 43.15625 15.25 
Q 46.1875 19.4375 46.1875 27.296875 
Q 46.1875 35.15625 43.15625 39.328125 
Q 40.140625 43.5 34.421875 43.5 
z
M 34.421875 56 
Q 48.53125 56 56.46875 48.375 
Q 64.40625 40.765625 64.40625 27.296875 
Q 64.40625 13.8125 56.46875 6.1875 
Q 48.53125 -1.421875 34.421875 -1.421875 
Q 20.265625 -1.421875 12.28125 6.1875 
Q 4.296875 13.8125 4.296875 27.296875 
Q 4.296875 40.765625 12.28125 48.375 
Q 20.265625 56 34.421875 56 
z
" id="DejaVuSans-Bold-111"/>
      <path d="M 52.59375 52.984375 
L 52.59375 38.71875 
Q 49.03125 41.15625 45.4375 42.328125 
Q 41.84375 43.5 37.984375 43.5 
Q 30.671875 43.5 26.59375 39.234375 
Q 22.515625 34.96875 22.515625 27.296875 
Q 22.515625 19.625 26.59375 15.34375 
Q 30.671875 11.078125 37.984375 11.078125 
Q 42.09375 11.078125 45.78125 12.296875 
Q 49.46875 13.53125 52.59375 15.921875 
L 52.59375 1.609375 
Q 48.484375 0.09375 44.265625 -0.65625 
Q 40.046875 -1.421875 35.796875 -1.421875 
Q 21 -1.421875 12.640625 6.171875 
Q 4.296875 13.765625 4.296875 27.296875 
Q 4.296875 40.828125 12.640625 48.40625 
Q 21 56 35.796875 56 
Q 40.09375 56 44.265625 55.25 
Q 48.4375 54.5 52.59375 52.984375 
z
" id="DejaVuSans-Bold-99"/>
      <path d="M 49.03125 39.796875 
Q 46.734375 40.875 44.453125 41.375 
Q 42.1875 41.890625 39.890625 41.890625 
Q 33.15625 41.890625 29.515625 37.5625 
Q 25.875 33.25 25.875 25.203125 
L 25.875 0 
L 8.40625 0 
L 8.40625 54.6875 
L 25.875 54.6875 
L 25.875 45.703125 
Q 29.25 51.078125 33.609375 53.53125 
Q 37.984375 56 44.09375 56 
Q 44.96875 56 45.984375 55.921875 
Q 47.015625 55.859375 48.96875 55.609375 
z
" id="DejaVuSans-Bold-114"/>
      <path d="M 62.984375 27.484375 
L 62.984375 22.515625 
L 22.125 22.515625 
Q 22.75 16.359375 26.5625 13.28125 
Q 30.375 10.203125 37.203125 10.203125 
Q 42.71875 10.203125 48.5 11.84375 
Q 54.296875 13.484375 60.40625 16.796875 
L 60.40625 3.328125 
Q 54.203125 0.984375 48 -0.21875 
Q 41.796875 -1.421875 35.59375 -1.421875 
Q 20.75 -1.421875 12.515625 6.125 
Q 4.296875 13.671875 4.296875 27.296875 
Q 4.296875 40.671875 12.375 48.328125 
Q 20.453125 56 34.625 56 
Q 47.515625 56 55.25 48.234375 
Q 62.984375 40.484375 62.984375 27.484375 
z
M 45.015625 33.296875 
Q 45.015625 38.28125 42.109375 41.328125 
Q 39.203125 44.390625 34.515625 44.390625 
Q 29.4375 44.390625 26.265625 41.53125 
Q 23.09375 38.671875 22.3125 33.296875 
z
" id="DejaVuSans-Bold-101"/>
      <path d="M 8.40625 75.984375 
L 25.875 75.984375 
L 25.875 0 
L 8.40625 0 
z
" id="DejaVuSans-Bold-108"/>
      <path d="M 32.90625 24.609375 
Q 27.4375 24.609375 24.671875 22.75 
Q 21.921875 20.90625 21.921875 17.28125 
Q 21.921875 13.96875 24.140625 12.078125 
Q 26.375 10.203125 30.328125 10.203125 
Q 35.25 10.203125 38.625 13.734375 
Q 42 17.28125 42 22.609375 
L 42 24.609375 
z
M 59.625 31.203125 
L 59.625 0 
L 42 0 
L 42 8.109375 
Q 38.484375 3.125 34.078125 0.84375 
Q 29.6875 -1.421875 23.390625 -1.421875 
Q 14.890625 -1.421875 9.59375 3.53125 
Q 4.296875 8.5 4.296875 16.40625 
Q 4.296875 26.03125 10.90625 30.515625 
Q 17.53125 35.015625 31.6875 35.015625 
L 42 35.015625 
L 42 36.375 
Q 42 40.53125 38.71875 42.453125 
Q 35.453125 44.390625 28.515625 44.390625 
Q 22.90625 44.390625 18.0625 43.265625 
Q 13.234375 42.140625 9.078125 39.890625 
L 9.078125 53.21875 
Q 14.703125 54.59375 20.359375 55.296875 
Q 26.03125 56 31.6875 56 
Q 46.484375 56 53.046875 50.171875 
Q 59.625 44.34375 59.625 31.203125 
z
" id="DejaVuSans-Bold-97"/>
      <path d="M 8.40625 54.6875 
L 25.875 54.6875 
L 25.875 0 
L 8.40625 0 
z
M 8.40625 75.984375 
L 25.875 75.984375 
L 25.875 61.71875 
L 8.40625 61.71875 
z
" id="DejaVuSans-Bold-105"/>
      <path d="M 63.375 33.296875 
L 63.375 0 
L 45.796875 0 
L 45.796875 5.421875 
L 45.796875 25.484375 
Q 45.796875 32.5625 45.484375 35.25 
Q 45.171875 37.9375 44.390625 39.203125 
Q 43.359375 40.921875 41.59375 41.875 
Q 39.84375 42.828125 37.59375 42.828125 
Q 32.125 42.828125 29 38.59375 
Q 25.875 34.375 25.875 26.90625 
L 25.875 0 
L 8.40625 0 
L 8.40625 54.6875 
L 25.875 54.6875 
L 25.875 46.6875 
Q 29.828125 51.46875 34.265625 53.734375 
Q 38.71875 56 44.09375 56 
Q 53.5625 56 58.46875 50.1875 
Q 63.375 44.390625 63.375 33.296875 
z
" id="DejaVuSans-Bold-110"/>
      <path id="DejaVuSans-Bold-32"/>
      <path d="M 25.875 7.90625 
L 25.875 -20.796875 
L 8.40625 -20.796875 
L 8.40625 54.6875 
L 25.875 54.6875 
L 25.875 46.6875 
Q 29.5 51.46875 33.890625 53.734375 
Q 38.28125 56 44 56 
Q 54.109375 56 60.59375 47.96875 
Q 67.09375 39.9375 67.09375 27.296875 
Q 67.09375 14.65625 60.59375 6.609375 
Q 54.109375 -1.421875 44 -1.421875 
Q 38.28125 -1.421875 33.890625 0.84375 
Q 29.5 3.125 25.875 7.90625 
z
M 37.5 43.3125 
Q 31.890625 43.3125 28.875 39.1875 
Q 25.875 35.0625 25.875 27.296875 
Q 25.875 19.53125 28.875 15.40625 
Q 31.890625 11.28125 37.5 11.28125 
Q 43.109375 11.28125 46.0625 15.375 
Q 49.03125 19.484375 49.03125 27.296875 
Q 49.03125 35.109375 46.0625 39.203125 
Q 43.109375 43.3125 37.5 43.3125 
z
" id="DejaVuSans-Bold-112"/>
     </defs>
     <use xlink:href="#DejaVuSans-Bold-65"/>
     <use x="77.392578" xlink:href="#DejaVuSans-Bold-117"/>
     <use x="148.583984" xlink:href="#DejaVuSans-Bold-116"/>
     <use x="196.386719" xlink:href="#DejaVuSans-Bold-111"/>
     <use x="265.087891" xlink:href="#DejaVuSans-Bold-99"/>
     <use x="324.365234" xlink:href="#DejaVuSans-Bold-111"/>
     <use x="393.066406" xlink:href="#DejaVuSans-Bold-114"/>
     <use x="442.382812" xlink:href="#DejaVuSans-Bold-114"/>
     <use x="491.699219" xlink:href="#DejaVuSans-Bold-101"/>
     <use x="559.521484" xlink:href="#DejaVuSans-Bold-108"/>
     <use x="593.798828" xlink:href="#DejaVuSans-Bold-97"/>
     <use x="661.279297" xlink:href="#DejaVuSans-Bold-116"/>
     <use x="709.082031" xlink:href="#DejaVuSans-Bold-105"/>
     <use x="743.359375" xlink:href="#DejaVuSans-Bold-111"/>
     <use x="812.060547" xlink:href="#DejaVuSans-Bold-110"/>
     <use x="883.251953" xlink:href="#DejaVuSans-Bold-32"/>
     <use x="918.066406" xlink:href="#DejaVuSans-Bold-112"/>
     <use x="989.648438" xlink:href="#DejaVuSans-Bold-108"/>
     <use x="1023.925781" xlink:href="#DejaVuSans-Bold-111"/>
     <use x="1092.626953" xlink:href="#DejaVuSans-Bold-116"/>
    </g>
   </g>
   <g id="legend_1">
    <g id="patch_7">
     <path d="M 332.8175 95.1365 
L 513.2 95.1365 
L 513.2 52.4 
L 332.8175 52.4 
z
" style="fill:#4c4c4c;opacity:0.5;stroke:#4c4c4c;stroke-linejoin:miter;"/>
    </g>
    <g id="patch_8">
     <path d="M 330.8175 93.1365 
L 511.2 93.1365 
L 511.2 50.4 
L 330.8175 50.4 
z
" style="fill:#ffffff;stroke:#000000;stroke-linejoin:miter;"/>
    </g>
    <g id="line2d_46">
     <path d="M 349.5375 70.70175 
L 369.6975 70.70175 
" style="fill:none;stroke:#800000;stroke-linecap:square;"/>
    </g>
    <g id="line2d_47"/>
    <g id="text_17">
     <!-- Autocorrelation -->
     <g transform="translate(385.5375 75.74175)scale(0.144 -0.144)">
      <use xlink:href="#DejaVuSans-65"/>
      <use x="68.408203" xlink:href="#DejaVuSans-117"/>
      <use x="131.787109" xlink:href="#DejaVuSans-116"/>
      <use x="170.996094" xlink:href="#DejaVuSans-111"/>
      <use x="232.177734" xlink:href="#DejaVuSans-99"/>
      <use x="287.158203" xlink:href="#DejaVuSans-111"/>
      <use x="348.339844" xlink:href="#DejaVuSans-114"/>
      <use x="389.4375" xlink:href="#DejaVuSans-114"/>
      <use x="430.519531" xlink:href="#DejaVuSans-101"/>
      <use x="492.042969" xlink:href="#DejaVuSans-108"/>
      <use x="519.826172" xlink:href="#DejaVuSans-97"/>
      <use x="581.105469" xlink:href="#DejaVuSans-116"/>
      <use x="620.314453" xlink:href="#DejaVuSans-105"/>
      <use x="648.097656" xlink:href="#DejaVuSans-111"/>
      <use x="709.279297" xlink:href="#DejaVuSans-110"/>
     </g>
    </g>
   </g>
  </g>
 </g>
 <defs>
  <clipPath id="p50ea49c79b">
   <rect height="345.6" width="446.4" x="72" y="43.2"/>
  </clipPath>
 </defs>
</svg>
